<?xml version="1.0" encoding="utf-8"?>
<!-- Generator: Adobe Illustrator 22.1.0, SVG Export Plug-In . SVG Version: 6.00 Build 0)  -->
<svg version="1.1" id="Layer_1" xmlns="http://www.w3.org/2000/svg" xmlns:xlink="http://www.w3.org/1999/xlink" x="0px" y="0px"
	 viewBox="0 0 512 512" style="enable-background:new 0 0 512 512;" xml:space="preserve">
<g>
	<path d="M175.2,211.2h96.2l-15.8,53.3H176v164.4c0,8.3-2.9,9.6,4.6,10.4l62.1,5.8V481H56v-36.7l30.4-2.9c7.5-0.8,9.6-3.3,9.6-11.2
		V267.9c0-3.3-4.2-3.3-8.3-3.3H56v-53.3h40v-30c0-70.8,37.9-100,110.4-100c48.8,0,92.5,11.7,92.5,75.4l-72.5,8.8
		c0.4-26.7-6.2-32.9-23.3-32.9c-26.2,0-27.1,14.2-27.1,39.2V205C176,208.3,171,211.2,175.2,211.2z M456,481H309.3v-35.8l29.2-3.8
		c7.5-0.8,10.8-2.5,10.8-10.4V276.8c0-5.8-4.2-9.6-9.6-11.2l-34.6-9.2l9.6-42.1h114.6V431c0,8.3-3.8,9.2,4.2,10.4l22.5,3.8V481z
		 M424.8,119.3l12.9,47.5l-10.4,10.4l-44.6-23.8l-44.6,23.8l-10.4-10.4l12.9-47.5l-31.2-37.9l5-10.4h39.6L376,31h13.3l22.1,40H451
		l5,13.8L424.8,119.3L424.8,119.3z"/>
</g>
</svg>
